<?xml version="1.0" encoding="UTF-8"?>
<svg width="47px" height="49px" viewBox="0 0 47 49" version="1.1" xmlns="http://www.w3.org/2000/svg" xmlns:xlink="http://www.w3.org/1999/xlink">
    <!-- Generator: Sketch 47 (45396) - http://www.bohemiancoding.com/sketch -->
    <title>monkey_bottom</title>
    <desc>Created with Sketch.</desc>
    <defs></defs>
    <g id="Page-1" stroke="none" stroke-width="1" fill="none" fill-rule="evenodd">
        <g id="Webpage" transform="translate(-56.000000, -42.000000)" fill-rule="nonzero" fill="#A97C50">
            <g id="monkey_bottom" transform="translate(56.000000, 42.000000)">
                <path d="M46.9998983,28.3260303 C46.9901066,27.7958635 46.2926098,27.1638916 45.4498692,26.5286672 C45.3423235,25.8965327 44.8530639,24.9280838 43.7578601,24.4917533 C43.5212269,23.8571793 43.2837777,23.2600098 43.0417591,22.6971548 C42.660698,21.8100198 42.2682133,21.005825 41.8435791,20.2764391 C42.2657653,19.4507774 42.6166353,18.5881993 42.8852548,17.7013895 C43.1951627,16.6778098 43.4149868,15.5846253 43.4575807,14.4929045 C43.4918518,13.6143888 43.4113965,12.7365236 43.1710098,11.896388 C42.5234508,9.64057696 40.8986782,7.72953696 38.4936688,7.3252441 C37.9161206,7.22799264 37.3250271,7.21953599 36.742583,7.28426188 C36.143493,7.35028879 35.4259232,7.45404536 34.8891738,7.74222193 C34.0394158,8.19839308 33.9860509,9.43485271 34.791583,9.96290538 C35.195981,10.2276635 35.6207784,10.1993663 36.0627114,10.063572 C36.6112108,9.89378854 37.1916966,9.79816336 37.7667969,9.84272339 C38.8424172,9.92631411 39.7013141,10.5576355 40.2166849,11.4849395 C41.308788,13.448671 40.8591849,15.9009365 40.0665453,17.906138 C39.8565129,17.6939087 39.6370152,17.4942016 39.4075626,17.3076675 C38.8114101,16.8207597 38.1507954,16.4236224 37.4391007,16.1252003 C36.7274059,15.825965 35.9670789,15.6231681 35.163342,15.4994083 C34.6682074,15.4231358 34.1747047,15.4143539 33.6913202,15.4424885 C32.6424639,15.5039619 31.5265343,15.9106942 31.4904682,15.9243549 C31.7424417,15.277096 31.8759355,14.673584 31.927342,14.1944823 C32.0716067,12.8441832 31.8875224,10.4273706 29.7826292,8.66513505 C31.7352611,8.10325579 32.431126,6.55894161 32.3299449,5.11106576 C32.2029789,3.28833269 30.6162309,1.91298887 28.7873009,2.04032649 C28.0690783,2.08992798 27.4193978,2.36395593 26.904027,2.7898783 C26.3243572,2.36899739 25.6315931,2.02780414 24.8165957,1.79638469 C24.8136582,1.79573418 24.8107207,1.7941079 24.8077831,1.79345739 C24.4136664,1.6575005 24.5184378,0.88566867 24.6850603,0.647581481 C24.6850603,0.647581481 23.6745549,0.647581481 23.3135668,1.00731431 C23.3135668,1.00731431 23.2897403,0.335498615 23.4818212,0.000322593225 C22.1587968,-0.024071586 21.7739822,1.34249033 20.6753513,1.56545313 C19.1480064,1.79638469 17.891892,2.37322572 16.92855,3.15514048 C16.3589984,2.69620465 15.633432,2.42136357 14.8445458,2.42136357 C13.0103937,2.42136357 11.5241739,3.90306601 11.5241739,5.73035266 C11.5241739,7.11122583 12.3723,8.29401827 13.5776606,8.78954536 C12.1542711,10.1139867 11.7985053,11.8661392 12.0532532,13.6189423 C12.3138761,15.4166307 12.9382614,17.0861683 14.4035921,18.3787346 C5.56934002,20.5932382 5.58565955,13.0473054 6.67433551,8.69131813 C7.35355442,8.37891001 8.26875375,7.9661605 8.71117626,7.79214869 C9.44245447,7.50429737 10.2711603,6.56414571 9.77015067,6.12244843 C9.26930424,5.68075116 8.38364326,6.60220062 8.05578387,6.31093413 C7.98087722,6.24393145 7.91151921,6.13236873 7.82926877,5.99722498 C9.3161413,4.48950208 9.36607907,3.64660187 8.94226083,3.30134292 C8.51860578,2.95527083 7.63229202,3.56935364 7.03516036,5.04829141 C6.86184693,4.92192956 6.65328331,4.80874057 6.40000418,4.7225478 L6.40000418,4.72189729 C6.86201012,3.24507368 6.63092556,2.11074435 5.97618594,2.03235772 C5.32160953,1.95332058 4.84002015,2.72515241 4.91655875,4.5334116 L4.91737473,4.54072985 L4.91737473,4.54138037 C4.65756778,4.55650476 4.43219505,4.60025165 4.23603428,4.66221287 C3.97818568,3.68189212 3.51128388,2.76385784 2.87678049,3.07041136 C2.6220326,3.19368328 2.51889316,3.440715 2.51824038,3.76938591 C2.51726121,4.25922103 2.74426589,4.92989833 3.03703829,5.64123259 C2.94679128,5.87557934 2.88069718,6.18424702 2.87710688,6.52869283 C2.87139504,7.0637385 3.01598609,7.68562744 3.45367593,8.25238553 C3.06853499,9.68497436 2.87041587,11.1195147 2.86862072,12.4919313 C2.86062415,18.5441271 6.66895006,23.3912505 15.0808527,21.5516042 C14.4882905,22.9593109 14.1960077,24.6195788 14.5013461,26.1861729 C14.0018052,26.4114125 13.5058547,26.6457593 13.0157791,26.8919779 C12.0160446,27.3925464 11.0199004,27.930682 10.1133504,28.588837 C9.66227857,28.91702 9.20598446,29.2873236 8.91076413,29.767889 C8.6645024,30.1674656 8.61848132,30.253821 8.41775108,30.6727504 C7.38260318,32.83131 6.52582777,35.0833806 5.64522584,37.308455 C5.64522584,37.308455 0.0329388975,35.1629056 0.000136638776,38.5216589 C-0.000352947174,38.5750008 0.00046302941,38.6296438 0.00274776385,38.6857504 C0.0794495627,40.5369433 2.02734886,41.2842183 3.99548438,41.2931629 C5.52625646,41.3003185 7.06926818,40.8607354 7.75370934,40.1464738 C8.2986185,39.6668843 8.54324828,38.786417 8.79440587,38.1323278 C9.1034978,37.3261814 9.38207221,36.5076754 9.70895243,35.7078716 C10.2546776,34.3696069 11.0536818,32.3219595 11.6565253,31.4055515 C12.6180721,30.5590735 13.8803879,29.9812567 15.0274878,29.4323877 C15.3262984,29.2900883 15.6286993,29.1570587 15.933385,29.0284201 C17.0140644,30.1928356 18.729084,31.1012748 21.2928824,31.5065434 C23.5905093,31.8690409 25.3458381,31.4928827 26.6367131,30.6734009 C27.0481284,31.168928 27.4616654,31.6631541 27.8428896,32.1824248 C28.5948937,33.2051914 29.4351863,34.307971 29.8820151,35.5062131 C29.5370202,36.9105046 29.0043507,38.2845474 28.5221085,39.6462305 C28.2340688,40.4609961 27.8977233,41.2572221 27.5932008,42.0649947 C27.3454703,42.7205476 26.9428675,43.5410052 27.0309929,44.2604708 C27.097903,46.0316509 29.824244,48.9700111 32.101961,48.999772 C32.7240616,49.0079034 33.3127071,48.7990892 33.8045778,48.290064 C34.2625038,47.8161664 34.4421819,47.3564174 34.4299422,46.9213879 C34.375435,44.9789607 30.4977511,43.5299465 30.4977511,43.5299465 C31.3199291,41.2824294 32.1783364,39.0303588 32.8394407,36.7306382 C32.9678754,36.2847126 33.1065914,35.8205727 33.0791746,35.3523671 C33.0460459,34.7891868 32.8185517,34.2489371 32.5760434,33.747718 C32.0882526,32.7413768 31.4643569,31.7984604 30.8197354,30.8867686 C30.3391252,30.2063337 29.835994,29.5424867 29.3147482,28.8913248 C30.1029816,28.7979764 30.8863191,28.6534002 31.654969,28.4540185 C34.8279756,27.6325851 37.6763866,25.8482322 39.7861757,23.3642543 C39.8757699,23.5585946 40.5233289,25.1035593 40.7619205,25.747403 C40.3369599,26.3601848 39.7600645,27.1803171 39.4677816,27.5550117 C38.9848867,28.1734854 38.7524966,29.4026268 39.4087049,29.5294765 C40.0655661,29.6551879 40.3571961,28.4133615 40.7880318,28.4971149 C40.8869281,28.5167928 41.003776,28.5777783 41.1437975,28.6524245 C40.633649,30.7039749 41.0210747,31.4548278 41.5623935,31.537768 C42.1037124,31.6197324 42.5529891,30.6420137 42.3119496,29.0669629 C42.5255723,29.0876166 42.7622055,29.0799731 43.02495,29.0246796 C43.3808789,30.5299631 44.1594838,31.3894514 44.7637961,31.1255064 C45.3679451,30.8615613 45.3881813,29.9524716 44.3979122,28.4354789 L44.3935059,28.4297869 C44.6092501,28.284235 44.781258,28.1318527 44.9189948,27.9799583 C45.6416237,28.6937319 46.5121075,29.2450404 46.9011651,28.6597427 C46.9710127,28.5543599 47.0020198,28.4426345 46.9998983,28.3260303 Z M14.6635622,7.20522473 C13.9251034,7.11659255 13.3534302,6.49031266 13.3534302,5.73067792 C13.3534302,4.91070824 14.0210623,4.24523503 14.844709,4.24523503 C15.1536378,4.24523503 15.4410247,4.33858342 15.6784739,4.49991026 C15.1023945,5.33337805 14.7595211,6.26734986 14.6635622,7.20522473 Z M28.9144301,3.85899386 C29.7357921,3.80207411 30.4476501,4.41924684 30.505258,5.2379155 C30.5592757,6.01771609 30.0000053,6.69880157 29.2364144,6.81036429 C29.1143444,5.85216093 28.7793044,4.91428605 28.2012666,4.0985447 C28.4077086,3.96258781 28.6502169,3.87688292 28.9144301,3.85899386 Z M29.4276794,26.2619575 C29.8882165,24.7430133 29.469131,22.3418129 29.0870907,21.4078411 C31.928158,18.1972419 35.9672421,17.6280444 38.3964044,20.927601 C36.1712362,24.5002099 30.9661216,26.0733092 29.4276794,26.2619575 Z" id="Shape"></path>
            </g>
        </g>
    </g>
</svg>